<svg width="20" height="23" viewBox="0 0 20 23" fill="none" xmlns="http://www.w3.org/2000/svg">
<circle cx="10" cy="11" r="10" fill="#00FFFF"/>
<path d="M10.8887 13.6543H8.39844C8.40495 13.0684 8.45052 12.5638 8.53516 12.1406C8.6263 11.7109 8.7793 11.3236 8.99414 10.9785C9.21549 10.6335 9.50846 10.2917 9.87305 9.95312C10.179 9.67969 10.446 9.41927 10.6738 9.17188C10.9017 8.92448 11.0807 8.67057 11.2109 8.41016C11.3411 8.14323 11.4062 7.84701 11.4062 7.52148C11.4062 7.14388 11.3477 6.83138 11.2305 6.58398C11.1198 6.33008 10.9505 6.13802 10.7227 6.00781C10.5013 5.8776 10.2214 5.8125 9.88281 5.8125C9.60286 5.8125 9.34245 5.87435 9.10156 5.99805C8.86068 6.11523 8.66211 6.29753 8.50586 6.54492C8.35612 6.79232 8.27799 7.11784 8.27148 7.52148H5.43945C5.45898 6.62956 5.66406 5.89388 6.05469 5.31445C6.45182 4.72852 6.98242 4.29557 7.64648 4.01562C8.31055 3.72917 9.05599 3.58594 9.88281 3.58594C10.7943 3.58594 11.5755 3.73568 12.2266 4.03516C12.8776 4.32812 13.3757 4.76107 13.7207 5.33398C14.0658 5.90039 14.2383 6.59049 14.2383 7.4043C14.2383 7.9707 14.1276 8.47526 13.9062 8.91797C13.6849 9.35417 13.3952 9.76107 13.0371 10.1387C12.679 10.5163 12.2852 10.9069 11.8555 11.3105C11.4844 11.6426 11.2305 11.9909 11.0938 12.3555C10.9635 12.7201 10.8952 13.153 10.8887 13.6543ZM8.10547 16.6719C8.10547 16.2552 8.2487 15.9102 8.53516 15.6367C8.82161 15.3568 9.20573 15.2168 9.6875 15.2168C10.1628 15.2168 10.5436 15.3568 10.8301 15.6367C11.123 15.9102 11.2695 16.2552 11.2695 16.6719C11.2695 17.0755 11.123 17.4173 10.8301 17.6973C10.5436 17.9772 10.1628 18.1172 9.6875 18.1172C9.20573 18.1172 8.82161 17.9772 8.53516 17.6973C8.2487 17.4173 8.10547 17.0755 8.10547 16.6719Z" fill="#081124"/>
</svg>
