<svg width="27" height="27" viewBox="0 0 27 27" fill="none" xmlns="http://www.w3.org/2000/svg">
<path d="M27 11.4417C27 10.7062 26.4037 10.1099 25.6682 10.1099H18.0404C17.3048 10.1099 16.7085 10.7062 16.7085 11.4417V15.4372C16.7085 16.1728 17.3048 16.7691 18.0404 16.7691H25.6682C26.4037 16.7691 27 16.1728 27 15.4372V11.4417ZM20.5242 15.0095C19.6668 15.0095 18.9717 14.3144 18.9717 13.4569C18.9717 12.5994 19.6668 11.9043 20.5242 11.9043C21.3817 11.9043 22.0768 12.5994 22.0768 13.4569C22.0768 14.3142 21.3817 15.0095 20.5242 15.0095Z" fill="#00FFFF"/>
<path d="M14.954 8.29372H24.8206V4.2982C24.8206 3.29678 24.0463 2.48206 23.0448 2.48206H1.85646C0.85504 2.48206 0 3.29678 0 4.2982V22.7018C0 23.7032 0.85504 24.5179 1.85646 24.5179H23.0448C24.0462 24.5179 24.8206 23.7032 24.8206 22.7018V18.5852H14.972L14.954 8.29372Z" fill="#00FFFF"/>
</svg>
